<svg width="96" height="66" viewBox="0 0 96 66" fill="none" xmlns="http://www.w3.org/2000/svg">
<path d="M17.4952 50.3016H16.5805V47.8584H17.4952C17.8505 47.8584 18.1477 47.9763 18.3834 48.2084C18.6191 48.4424 18.737 48.7326 18.737 49.0791C18.737 49.4256 18.6191 49.7159 18.3834 49.9498C18.1477 50.1838 17.8505 50.2998 17.4952 50.2998V50.3016ZM16.9675 48.2049V49.9568H17.467C17.7203 49.9568 17.9296 49.8742 18.0932 49.7071C18.2568 49.54 18.3395 49.3324 18.3395 49.0809C18.3395 48.8294 18.2568 48.6183 18.0932 48.4529C17.9296 48.2876 17.7203 48.2049 17.467 48.2049H16.9675Z" fill="#EBEBE3"/>
<path d="M20.992 50.3016H19.4283V47.8584H20.992V48.2032H19.8152V48.9085H20.9568V49.2497H19.8152V49.9551H20.992V50.2998V50.3016Z" fill="#EBEBE3"/>
<path d="M21.6305 49.6667L22.0175 49.5858C22.0386 49.7159 22.0966 49.818 22.1916 49.8901C22.2866 49.9622 22.4132 49.9991 22.5715 49.9991C22.7158 49.9991 22.8336 49.9657 22.9251 49.8989C23.0166 49.832 23.0623 49.7476 23.0623 49.6456C23.0623 49.5787 23.0429 49.5189 23.0025 49.4697C22.962 49.4187 22.911 49.38 22.8477 49.3518C22.7844 49.3237 22.7105 49.2973 22.6278 49.2692C22.5452 49.2428 22.4607 49.2199 22.3745 49.1988C22.2884 49.1777 22.2039 49.1513 22.1212 49.1126C22.0386 49.0757 21.9647 49.0335 21.9014 48.9877C21.8381 48.942 21.7853 48.8769 21.7466 48.796C21.7061 48.7151 21.6868 48.6201 21.6868 48.5128C21.6868 48.3158 21.7695 48.1505 21.933 48.0185C22.0966 47.8866 22.3007 47.8215 22.5452 47.8215C22.7897 47.8215 22.9884 47.8831 23.1485 48.008C23.3086 48.1329 23.4053 48.2929 23.4352 48.4917L23.0447 48.5726C23.0236 48.4495 22.9673 48.3492 22.8776 48.2718C22.7861 48.1944 22.6718 48.1557 22.5328 48.1557C22.4027 48.1557 22.2954 48.1874 22.211 48.2525C22.1265 48.3158 22.0861 48.3967 22.0861 48.4917C22.0861 48.5761 22.1195 48.6447 22.1881 48.701C22.2549 48.7573 22.3411 48.7978 22.4431 48.8206C22.5452 48.8435 22.656 48.8769 22.7738 48.9156C22.8917 48.9543 23.0025 48.9965 23.1045 49.0405C23.2065 49.0845 23.291 49.1583 23.3596 49.2604C23.4282 49.3624 23.4616 49.4855 23.4616 49.6315C23.4616 49.8338 23.3754 50.0009 23.203 50.1346C23.0306 50.2683 22.816 50.3333 22.561 50.3333C22.3059 50.3333 22.0931 50.2735 21.926 50.1522C21.7589 50.0308 21.6604 49.869 21.6287 49.6632L21.6305 49.6667Z" fill="#EBEBE3"/>
<path d="M25.7465 50.3016H24.1827V47.8584H25.7465V48.2032H24.5697V48.9085H25.7113V49.2497H24.5697V49.9551H25.7465V50.2998V50.3016Z" fill="#EBEBE3"/>
<path d="M28.1949 49.6631V47.8584H28.5784V50.3016H28.202L26.844 48.4969V50.3016H26.4571V47.8584H26.8335L28.1949 49.6631Z" fill="#EBEBE3"/>
<path d="M30.3585 49.883L31.1395 47.8584H31.53L30.559 50.3016H30.1369L29.1624 47.8584H29.574L30.355 49.883H30.3585Z" fill="#EBEBE3"/>
<path d="M32.2529 49.9744C32.0067 49.7317 31.8853 49.4344 31.8853 49.0809C31.8853 48.7273 32.0084 48.43 32.2529 48.1873C32.4974 47.9446 32.8017 47.825 33.1623 47.825C33.5229 47.825 33.8219 47.9463 34.0682 48.1873C34.3144 48.4283 34.4358 48.7273 34.4358 49.0809C34.4358 49.4344 34.3127 49.7317 34.0682 49.9744C33.8219 50.2171 33.5211 50.3368 33.1623 50.3368C32.8035 50.3368 32.4992 50.2154 32.2529 49.9744ZM32.5361 48.4406C32.3672 48.6147 32.2828 48.8276 32.2828 49.0809C32.2828 49.3341 32.3672 49.5487 32.5361 49.7211C32.705 49.8953 32.9143 49.9814 33.1623 49.9814C33.4103 49.9814 33.6196 49.8953 33.7867 49.7211C33.9538 49.5487 34.0383 49.3341 34.0383 49.0809C34.0383 48.8276 33.9538 48.613 33.7867 48.4406C33.6196 48.2665 33.4103 48.1803 33.1623 48.1803C32.9143 48.1803 32.705 48.2665 32.5361 48.4406Z" fill="#EBEBE3"/>
<path d="M36.6908 50.3016H35.1271V47.8584H35.514V49.9551H36.6908V50.2998V50.3016Z" fill="#EBEBE3"/>
<path d="M37.9467 49.883L38.7277 47.8584H39.1182L38.1472 50.3016H37.7251L36.7506 47.8584H37.1622L37.9432 49.883H37.9467Z" fill="#EBEBE3"/>
<path d="M40.0926 50.3016H39.7056V47.8584H40.0926V50.3016Z" fill="#EBEBE3"/>
<path d="M43.4399 47.8601V50.3033H43.074V48.4423L42.3019 50.3033H41.9905L41.2201 48.4423V50.3033H40.8542V47.8601H41.3608L42.1559 49.7686L42.9509 47.8601H43.4399Z" fill="#EBEBE3"/>
<path d="M45.8022 50.3016H44.2385V47.8584H45.8022V48.2032H44.6255V48.9085H45.7671V49.2497H44.6255V49.9551H45.8022V50.2998V50.3016Z" fill="#EBEBE3"/>
<path d="M48.2524 49.6631V47.8584H48.6359V50.3016H48.2595L46.9016 48.4969V50.3016H46.5146V47.8584H46.891L48.2524 49.6631Z" fill="#EBEBE3"/>
<path d="M50.3984 50.3016H50.0149V48.2049H49.2269V47.8601H51.1881V48.2049H50.4001V50.3016H50.3984Z" fill="#EBEBE3"/>
<path d="M51.9322 49.9744C51.6859 49.7317 51.5646 49.4344 51.5646 49.0809C51.5646 48.7273 51.6877 48.43 51.9322 48.1873C52.1767 47.9446 52.481 47.825 52.8416 47.825C53.2022 47.825 53.5012 47.9463 53.7475 48.1873C53.9937 48.4283 54.1151 48.7273 54.1151 49.0809C54.1151 49.4344 53.9919 49.7317 53.7475 49.9744C53.5012 50.2171 53.2004 50.3368 52.8416 50.3368C52.4828 50.3368 52.1785 50.2154 51.9322 49.9744ZM52.2154 48.4406C52.0465 48.6147 51.9621 48.8276 51.9621 49.0809C51.9621 49.3341 52.0465 49.5487 52.2154 49.7211C52.3843 49.8953 52.5936 49.9814 52.8416 49.9814C53.0896 49.9814 53.2989 49.8953 53.466 49.7211C53.6331 49.5487 53.7175 49.3341 53.7175 49.0809C53.7175 48.8276 53.6331 48.613 53.466 48.4406C53.2989 48.2665 53.0896 48.1803 52.8416 48.1803C52.5936 48.1803 52.3843 48.2665 52.2154 48.4406Z" fill="#EBEBE3"/>
<path d="M56.5899 50.3016H56.203V47.8584H56.5899V50.3016Z" fill="#EBEBE3"/>
<path d="M59.9373 47.8601V50.3033H59.5714V48.4423L58.7992 50.3033H58.4879L57.7175 48.4423V50.3033H57.3516V47.8601H57.8582L58.6532 49.7686L59.4483 47.8601H59.9373Z" fill="#EBEBE3"/>
<path d="M61.0348 49.9744C60.7886 49.7317 60.6672 49.4344 60.6672 49.0809C60.6672 48.7273 60.7903 48.43 61.0348 48.1873C61.2793 47.9446 61.5836 47.825 61.9442 47.825C62.3048 47.825 62.6038 47.9463 62.8501 48.1873C63.0964 48.4283 63.2177 48.7273 63.2177 49.0809C63.2177 49.4344 63.0946 49.7317 62.8501 49.9744C62.6038 50.2171 62.3031 50.3368 61.9442 50.3368C61.5854 50.3368 61.2811 50.2154 61.0348 49.9744ZM61.318 48.4406C61.1492 48.6147 61.0647 48.8276 61.0647 49.0809C61.0647 49.3341 61.1492 49.5487 61.318 49.7211C61.4869 49.8953 61.6962 49.9814 61.9442 49.9814C62.1922 49.9814 62.4016 49.8953 62.5687 49.7211C62.7358 49.5487 62.8202 49.3341 62.8202 49.0809C62.8202 48.8276 62.7358 48.613 62.5687 48.4406C62.4016 48.2665 62.1922 48.1803 61.9442 48.1803C61.6962 48.1803 61.4869 48.2665 61.318 48.4406Z" fill="#EBEBE3"/>
<path d="M65.3672 49.0527C65.4886 49.1055 65.5818 49.1847 65.6504 49.2884C65.7172 49.3922 65.7524 49.5118 65.7524 49.6455C65.7524 49.8355 65.6856 49.9938 65.5536 50.1169C65.4217 50.24 65.2476 50.3016 65.033 50.3016H63.909V47.8584H64.9275C65.142 47.8584 65.3144 47.9217 65.4481 48.0466C65.58 48.1715 65.6469 48.3298 65.6469 48.518C65.6469 48.7502 65.5536 48.9279 65.3672 49.0527ZM64.8958 48.1944H64.2854V48.9173H64.8958C65.0119 48.9173 65.1069 48.8839 65.179 48.8153C65.2511 48.7467 65.288 48.6605 65.288 48.555C65.288 48.4494 65.2511 48.365 65.179 48.2964C65.1069 48.2278 65.0119 48.1944 64.8958 48.1944ZM64.2854 49.9674H64.9732C65.0893 49.9674 65.1843 49.9322 65.2564 49.8636C65.3285 49.795 65.3654 49.7088 65.3654 49.6033C65.3654 49.4978 65.3285 49.4133 65.2564 49.3447C65.1843 49.2779 65.0893 49.2427 64.9732 49.2427H64.2854V49.9656V49.9674Z" fill="#EBEBE3"/>
<path d="M66.85 50.3016H66.463V47.8584H66.85V50.3016Z" fill="#EBEBE3"/>
<path d="M69.1754 50.3016H67.6116V47.8584H67.9986V49.9551H69.1754V50.2998V50.3016Z" fill="#EBEBE3"/>
<path d="M70.1868 50.3016H69.7998V47.8584H70.1868V50.3016Z" fill="#EBEBE3"/>
<path d="M73.2438 50.3017H72.8322L72.5877 49.7124H71.411L71.1665 50.3017H70.7725L71.798 47.8585H72.2201L73.2421 50.3017H73.2438ZM72.002 48.2841L71.5552 49.3659H72.4453L72.002 48.2841ZM72.1797 47.1602H72.63L72.0812 47.6949H71.666L72.1797 47.1602Z" fill="#EBEBE3"/>
<path d="M75.0591 49.3324L75.7152 50.3033H75.2509L74.6124 49.3535H74.2183V50.3033H73.8314V47.8601H74.8428C75.082 47.8601 75.2772 47.9305 75.4268 48.0712C75.5763 48.2119 75.6519 48.3913 75.6519 48.6077C75.6519 48.7871 75.5991 48.9419 75.4918 49.0756C75.3845 49.2075 75.2403 49.2937 75.0591 49.3341V49.3324ZM74.8428 48.2049H74.2183V48.9999H74.8428C74.9641 48.9999 75.0627 48.963 75.14 48.8873C75.2174 48.8117 75.2544 48.7167 75.2544 48.6024C75.2544 48.4881 75.2157 48.3931 75.14 48.3174C75.0644 48.2418 74.9641 48.2049 74.8428 48.2049Z" fill="#EBEBE3"/>
<path d="M76.7583 50.3016H76.3713V47.8584H76.7583V50.3016Z" fill="#EBEBE3"/>
<path d="M77.8172 49.9744C77.5709 49.7317 77.4495 49.4344 77.4495 49.0809C77.4495 48.7273 77.5727 48.43 77.8172 48.1873C78.0617 47.9446 78.366 47.825 78.7265 47.825C79.0871 47.825 79.3862 47.9463 79.6324 48.1873C79.8787 48.4283 80 48.7273 80 49.0809C80 49.4344 79.8769 49.7317 79.6324 49.9744C79.3862 50.2171 79.0854 50.3368 78.7265 50.3368C78.3677 50.3368 78.0634 50.2154 77.8172 49.9744ZM78.1004 48.4406C77.9315 48.6147 77.8471 48.8276 77.8471 49.0809C77.8471 49.3341 77.9315 49.5487 78.1004 49.7211C78.2692 49.8953 78.4785 49.9814 78.7265 49.9814C78.9746 49.9814 79.1839 49.8953 79.351 49.7211C79.5181 49.5487 79.6025 49.3341 79.6025 49.0809C79.6025 48.8276 79.5181 48.613 79.351 48.4406C79.1839 48.2665 78.9746 48.1803 78.7265 48.1803C78.4785 48.1803 78.2692 48.2665 78.1004 48.4406Z" fill="#EBEBE3"/>
<path d="M34.0663 29.5599L23.8731 23.8344C23.8327 23.8133 23.7782 23.7834 23.7782 23.6814C23.7782 23.6234 23.794 23.4352 23.9875 23.4352H36.8543V16H23.5301C19.3772 16 16 19.3772 16 23.5301C16 26.246 17.4758 28.7701 19.8539 30.1157L29.8765 35.718C30.077 35.8306 30.179 36.0012 30.179 36.2228C30.179 36.4656 30.019 36.8508 29.5898 36.8508H16V44.249H30.2388C34.58 44.249 38.112 40.7346 38.112 36.4146C38.112 33.5703 36.5623 30.9442 34.0663 29.5616V29.5599Z" fill="#EBEBE3"/>
<path d="M79.6658 16.0386H72.2289V44.2876H79.6658V16.0386Z" fill="#EBEBE3"/>
<path d="M67.2264 24.4975C66.5017 22.7931 65.4604 21.2874 64.1289 20.0245C62.8026 18.765 61.2055 17.7677 59.3779 17.0624C57.5574 16.3588 55.5363 16.0017 53.3693 16.0017H42.1594V36.1366L49.7775 30.7295V23.0499H53.371C54.4334 23.0499 55.415 23.2258 56.2856 23.5723C57.1458 23.9135 57.8863 24.3973 58.4861 25.0094C59.0912 25.625 59.5714 26.3743 59.9161 27.2397C60.2627 28.1104 60.4368 29.0779 60.4368 30.1174V30.1931C60.4368 31.2537 60.2627 32.2194 59.9179 33.0619C59.5731 33.9045 59.0912 34.645 58.4843 35.2642C58.1537 35.6001 57.7772 35.8921 57.3656 36.1454V43.7828C58.0622 43.6175 58.7359 43.4099 59.3832 43.1549C61.2072 42.4355 62.8044 41.4328 64.1289 40.1752C65.4604 38.9105 66.5035 37.3978 67.2282 35.681C67.9511 33.966 68.3187 32.0945 68.3187 30.1192V30.0435C68.3187 28.0665 67.9511 26.2002 67.2282 24.4993L67.2264 24.4975Z" fill="#EBEBE3"/>
<path d="M49.7757 30.7295L49.7722 44.2366H53.3675C54.7659 44.2366 56.1009 44.0836 57.3639 43.7828V36.1453L49.7739 30.7295H49.7757Z" fill="#B2233A"/>
</svg>
