<svg width="1838" height="415" viewBox="0 0 1838 415" fill="none" xmlns="http://www.w3.org/2000/svg">
<g clip-path="url(#clip0_3675_14)">
<path d="M0 410.34V0H188.63C277.43 0 339.9 50.83 339.9 138.41C339.9 225.99 277.43 277.43 188.63 277.43H43.48V410.33H0V410.34ZM43.48 39.81V237.63H184.96C257.23 237.63 295.81 208.23 295.81 138.41C295.81 68.59 257.23 39.81 184.96 39.81H43.48Z" fill="#EBEBE3"/>
<path d="M405.45 410.34V0H448.93V410.34H405.45Z" fill="#EBEBE3"/>
<path d="M540.19 410.34V0H587.96L723.46 202.74L852.54 316.66H856.21L854.99 279.88V0H898.47V410.34H850.7L717.65 206.91L585.51 99.52H582.45L583.68 134.12V410.34H540.2H540.19Z" fill="#EBEBE3"/>
<path d="M989.72 410.34V0H1037.49L1172.99 202.74L1302.07 316.66H1305.74L1304.52 279.88V0H1348V410.34H1300.23L1167.18 206.91L1035.04 99.52H1031.98L1033.21 134.12V410.34H989.73H989.72Z" fill="#EBEBE3"/>
<path d="M1405.61 410.34L1591.18 0H1651.81L1838 410.34H1789L1733.88 289.69H1508.5L1453.38 410.34H1405.61ZM1526.26 250.49H1716.12L1645.08 94.93L1622.42 41.65H1618.75L1596.7 94.93L1526.27 250.49H1526.26Z" fill="#EBEBE3"/>
<path d="M1538.49 408.83L1540.33 406.11C1544.41 408.75 1548.02 409.72 1552.59 409.72C1560.04 409.72 1565.01 404.35 1565.01 397.46C1565.01 390.17 1560.2 385.85 1552.35 385.85C1549.23 385.85 1546.1 386.49 1543.38 387.69L1542.1 385.93L1544.18 358.85H1564.13C1565.89 358.85 1567.09 358.29 1568.05 357.01L1569.57 355.01H1571.73L1570.53 365.82H1548.02L1546.74 382.4C1549.7 381.04 1553.31 380.24 1556.43 380.24C1566.84 380.24 1573.89 386.81 1573.89 396.66C1573.89 407.31 1565.72 414.52 1554.18 414.52C1548.17 414.52 1542.49 412.52 1538.48 408.83H1538.49Z" fill="#EBEBE3"/>
<path d="M1581.82 413.71V411.55L1586.47 409.87C1589.51 408.75 1590.24 407.95 1590.24 405.47V371.1C1590.24 368.7 1588.72 367.26 1585.43 366.7L1581.82 366.14V364.06L1596.4 358.05L1598.32 359.17V405.47C1598.32 407.95 1599.12 408.83 1602.09 409.87L1606.66 411.55V413.71H1581.83H1581.82Z" fill="#EBEBE3"/>
<path d="M1614.74 386.24C1614.74 369.42 1623.23 358.04 1635.73 358.04C1648.23 358.04 1656.8 369.18 1656.8 386.32C1656.8 403.46 1648.23 414.52 1635.73 414.52C1623.23 414.52 1614.74 403.39 1614.74 386.24ZM1647.9 386.32C1647.9 371.42 1643.25 362.37 1635.72 362.37C1628.19 362.37 1623.62 371.58 1623.62 386.24C1623.62 400.9 1628.27 410.19 1635.72 410.19C1643.17 410.19 1647.9 400.9 1647.9 386.32Z" fill="#EBEBE3"/>
<path d="M1668.17 413.71L1667.93 410.83C1668.97 410.91 1670.09 410.91 1671.21 410.91C1685.23 410.91 1694.92 400.26 1694.92 385.84C1692.12 390.41 1687.07 393.13 1681.62 393.13C1672.01 393.13 1665.44 386.16 1665.44 376.07C1665.44 365.98 1673.29 358.05 1684.02 358.05C1696.12 358.05 1703.89 368.06 1703.89 383.52C1703.89 401.86 1692.03 414.28 1674.65 414.28C1672.01 414.28 1669.6 414.12 1668.16 413.72L1668.17 413.71ZM1694.76 381.75C1694.76 370.69 1690.03 362.36 1683.87 362.36C1678.26 362.36 1674.26 367.49 1674.26 374.7C1674.26 381.91 1678.35 387.52 1684.27 387.52C1688.36 387.52 1692.28 385.36 1694.76 381.75Z" fill="#EBEBE3"/>
</g>
<defs>
<clipPath id="clip0_3675_14">
<rect width="1838" height="414.51" fill="white"/>
</clipPath>
</defs>
</svg>
