<svg width="708" height="122" viewBox="0 0 708 122" fill="none" xmlns="http://www.w3.org/2000/svg">
<g clip-path="url(#clip0_382_3)">
<path d="M12.81 11.73V70.01H54.49C75.78 70.01 87.15 61.35 87.15 40.78C87.15 20.21 75.78 11.73 54.49 11.73H12.81ZM0 120.89V0H55.57C81.74 0 100.14 14.98 100.14 40.78C100.14 66.58 81.73 81.74 55.57 81.74H12.81V120.89H0Z" fill="#393F36"/>
<path d="M132.26 0H119.45V120.89H132.26V0Z" fill="#393F36"/>
<path d="M159.15 120.89V0H173.22L213.14 59.73L251.17 93.3H252.25L251.89 82.46V0H264.7V120.89H250.63L211.43 60.96L172.5 29.32H171.6L171.96 39.52V120.89H159.15Z" fill="#393F36"/>
<path d="M291.59 120.89V0H305.66L345.58 59.73L383.61 93.3H384.69L384.33 82.46V0H397.14V120.89H383.07L343.87 60.96L304.94 29.32H304.04L304.4 39.52V120.89H291.59Z" fill="#393F36"/>
<path d="M449.66 73.8H505.59L484.66 27.97L477.98 12.27H476.9L470.4 27.97L449.65 73.8H449.66ZM414.12 120.89L468.79 0H486.65L541.5 120.89H527.06L510.82 85.34H444.42L428.18 120.89H414.11H414.12Z" fill="#393F36"/>
<path d="M523.49 28.38L524.46 26.94C526.61 28.33 528.52 28.84 530.92 28.84C534.85 28.84 537.47 26.01 537.47 22.38C537.47 18.54 534.94 16.26 530.8 16.26C529.15 16.26 527.51 16.6 526.07 17.23L525.39 16.3L526.49 2.02H537.01C537.94 2.02 538.57 1.72 539.08 1.05L539.88 0H541.02L540.39 5.7H528.52L527.84 14.44C529.4 13.72 531.3 13.3 532.95 13.3C538.44 13.3 542.16 16.76 542.16 21.96C542.16 27.58 537.85 31.38 531.77 31.38C528.6 31.38 525.6 30.32 523.49 28.38Z" fill="#393F36"/>
<path d="M546.34 30.9601V29.8201L548.79 28.9301C550.39 28.3401 550.78 27.9201 550.78 26.6101V8.4901C550.78 7.2201 549.98 6.4601 548.25 6.1701L546.35 5.8701V4.7701L554.04 1.6001L555.05 2.1901V26.6001C555.05 27.9101 555.47 28.3701 557.04 28.9201L559.45 29.8101V30.9501H546.36L546.34 30.9601Z" fill="#393F36"/>
<path d="M581.18 16.5101C581.18 8.6601 578.73 3.8801 574.76 3.8801C570.79 3.8801 568.38 8.7401 568.38 16.4701C568.38 24.2001 570.83 29.1001 574.76 29.1001C578.69 29.1001 581.18 24.2001 581.18 16.5101ZM563.69 16.4701C563.69 7.6001 568.17 1.6001 574.75 1.6001C581.33 1.6001 585.86 7.4701 585.86 16.5101C585.86 25.5501 581.34 31.3801 574.75 31.3801C568.16 31.3801 563.69 25.5101 563.69 16.4701Z" fill="#393F36"/>
<path d="M605.88 14.1101C605.88 8.2801 603.39 3.8901 600.14 3.8901C597.18 3.8901 595.07 6.5901 595.07 10.3901C595.07 14.1901 597.22 17.1501 600.35 17.1501C602.5 17.1501 604.57 16.0101 605.88 14.1101ZM591.86 30.9601L591.73 29.4401C592.28 29.4801 592.87 29.4801 593.46 29.4801C600.85 29.4801 605.96 23.8601 605.96 16.2601C604.48 18.6701 601.82 20.1001 598.95 20.1001C593.88 20.1001 590.42 16.4301 590.42 11.1001C590.42 5.7701 594.56 1.6001 600.22 1.6001C606.6 1.6001 610.69 6.8801 610.69 15.0301C610.69 24.7001 604.44 31.2501 595.27 31.2501C593.88 31.2501 592.61 31.1601 591.85 30.9501" fill="#393F36"/>
<path d="M581.12 96.7702V96.2402L582.12 95.8702C582.96 95.5502 583.1 95.4502 583.33 94.8402L589.39 78.8702L590.55 78.4502L596.82 94.8402C597.06 95.4502 597.19 95.5502 598.03 95.8702L599.03 96.2402V96.7702H593.31V96.2402L594.21 95.9202C595.29 95.5502 595.34 95.3702 595.34 95.1602C595.34 95.0502 595.29 94.9002 595.21 94.6602L593.87 91.1302H585.86L584.54 94.6602C584.46 94.9002 584.41 95.0602 584.41 95.1602C584.41 95.3702 584.46 95.5602 585.54 95.9202L586.44 96.2402V96.7702H581.12ZM586.23 90.1302H593.48L589.79 80.5102L586.23 90.1302Z" fill="#393F36"/>
<path d="M599.85 87.7802C599.85 82.2502 603.3 78.4502 608.36 78.4502C610.28 78.4502 611.84 78.8202 614.05 79.7702L614.42 83.0902H613.87L612.87 81.4302C612.03 80.0602 610.39 79.4502 608.21 79.4502C604.2 79.4502 601.38 82.9002 601.38 87.8002C601.38 92.7002 604.2 96.0202 608.6 96.0202C611.05 96.0202 613.03 94.7602 614.19 92.2502H614.69L614.24 95.2802C612.95 96.3302 610.71 97.0202 608.57 97.0202C603.04 97.0202 599.85 93.6502 599.85 87.7702V87.7802Z" fill="#393F36"/>
<path d="M617.58 96.7702V96.2402L618.77 95.8502C619.53 95.5902 619.77 95.3202 619.77 94.6402V80.8602C619.77 80.1802 619.53 79.9102 618.77 79.6502L617.58 79.2502V78.7202H623.4V79.2502L622.21 79.6502C621.45 79.9102 621.21 80.1802 621.21 80.8602V94.6402C621.21 95.3302 621.45 95.5902 622.21 95.8502L623.4 96.2402V96.7702H617.58Z" fill="#393F36"/>
<path d="M636.82 97.0602L630.55 80.8302L628.84 94.6402C628.81 94.8002 628.81 94.8502 628.81 95.0902C628.81 95.4302 629.05 95.5902 630 95.8802L631.19 96.2502V96.7802H625.52V96.2502L626.71 95.8602C627.42 95.6202 627.63 95.3902 627.71 94.6502L629.5 80.8702C629.53 80.7102 629.53 80.6602 629.53 80.5502C629.53 80.0502 629.4 79.9402 628.5 79.6502L627.31 79.2502V78.7202H631.34L637.53 95.1602L643.59 78.7202H647.54V79.2502L646.35 79.6502C645.45 79.9402 645.32 80.0502 645.32 80.5502C645.32 80.6602 645.32 80.6802 645.35 80.8702L647.14 94.6502C647.22 95.3902 647.43 95.6302 648.14 95.8602L649.33 96.2502V96.7802H643.35V96.2502L644.54 95.8802C645.46 95.5902 645.73 95.4302 645.73 95.0602C645.73 94.9302 645.73 94.8202 645.7 94.6402L643.91 80.8302L637.98 96.6902L636.82 97.0602Z" fill="#393F36"/>
<path d="M650.51 96.7702V96.2402L651.51 95.8702C652.35 95.5502 652.49 95.4502 652.72 94.8402L658.78 78.8702L659.94 78.4502L666.21 94.8402C666.45 95.4502 666.58 95.5502 667.42 95.8702L668.42 96.2402V96.7702H662.7V96.2402L663.6 95.9202C664.68 95.5502 664.73 95.3702 664.73 95.1602C664.73 95.0502 664.68 94.9002 664.6 94.6602L663.26 91.1302H655.25L653.93 94.6602C653.85 94.9002 653.8 95.0602 653.8 95.1602C653.8 95.3702 653.85 95.5602 654.93 95.9202L655.83 96.2402V96.7702H650.51ZM655.62 90.1302H662.87L659.18 80.5102L655.62 90.1302Z" fill="#393F36"/>
<path d="M582.57 121.36V120.83L583.76 120.44C584.55 120.18 584.76 119.91 584.76 119.23V105.45C584.76 104.77 584.55 104.5 583.76 104.24L582.57 103.84V103.31H589.26C595.11 103.31 598.43 106.76 598.43 112.32C598.43 117.88 594.98 121.36 589.65 121.36H582.56H582.57ZM586.21 120.36H589.71C594.03 120.36 596.9 117.15 596.9 112.32C596.9 107.49 593.97 104.31 589.57 104.31H586.2V120.36H586.21Z" fill="#393F36"/>
<path d="M601.59 112.35C601.59 107.05 605.12 103.05 609.81 103.05C614.9 103.05 618.03 106.61 618.03 112.35C618.03 117.65 614.5 121.63 609.81 121.63C604.72 121.63 601.59 118.1 601.59 112.35ZM616.5 112.35C616.5 107.45 613.76 104.08 609.81 104.08C605.86 104.08 603.12 107.64 603.12 112.35C603.12 117.06 605.86 120.6 609.81 120.6C613.76 120.6 616.5 117.07 616.5 112.35Z" fill="#393F36"/>
<path d="M627.51 112.35C627.51 107.05 631.04 103.05 635.73 103.05C640.82 103.05 643.95 106.61 643.95 112.35C643.95 117.65 640.42 121.63 635.73 121.63C630.64 121.63 627.51 118.1 627.51 112.35ZM642.43 112.35C642.43 107.45 639.69 104.08 635.74 104.08C631.79 104.08 629.05 107.64 629.05 112.35C629.05 117.06 631.79 120.6 635.74 120.6C639.69 120.6 642.43 117.07 642.43 112.35ZM633.92 101.7L636.4 97.46H638.17V97.93L634.53 101.7H633.92Z" fill="#393F36"/>
<path d="M647.11 121.36V120.83L648.3 120.44C649.09 120.18 649.3 119.91 649.3 119.23V105.45C649.3 104.77 649.09 104.5 648.3 104.24L647.11 103.84V103.31H653.96C658.07 103.31 660.26 104.86 660.26 107.76C660.26 109.79 658.97 111.29 656.89 111.87C659.39 112.32 661 114.03 661 116.45C661 119.53 658.63 121.35 654.57 121.35H647.11V121.36ZM650.75 111.5H653.67C656.67 111.5 658.73 109.97 658.73 107.76C658.73 105.55 656.91 104.31 653.54 104.31H650.75V111.5ZM650.75 120.36H654.28C657.55 120.36 659.47 118.91 659.47 116.43C659.47 113.95 657.55 112.5 654.2 112.5H650.75V120.35V120.36Z" fill="#393F36"/>
<path d="M670.43 121.7L664.16 105.23C663.95 104.62 663.79 104.52 662.95 104.2L661.95 103.83V103.3H667.7V103.83L666.8 104.15C665.72 104.52 665.67 104.7 665.67 104.91C665.67 105.02 665.72 105.17 665.8 105.41L671.23 119.64L676.47 105.41C676.55 105.17 676.6 105.02 676.6 104.91C676.6 104.7 676.55 104.51 675.47 104.15L674.57 103.83V103.3H679.89V103.83L678.89 104.2C678.05 104.52 677.91 104.62 677.68 105.23L671.62 121.28L670.43 121.7Z" fill="#393F36"/>
<path d="M681.6 121.36V120.83L682.79 120.44C683.55 120.18 683.79 119.91 683.79 119.23V105.45C683.79 104.77 683.55 104.5 682.79 104.24L681.6 103.84V103.31H687.42V103.84L686.23 104.24C685.47 104.5 685.23 104.77 685.23 105.45V119.23C685.23 119.92 685.47 120.18 686.23 120.44L687.42 120.83V121.36H681.6Z" fill="#393F36"/>
<path d="M690.58 112.35C690.58 107.05 694.11 103.05 698.8 103.05C703.89 103.05 707.02 106.61 707.02 112.35C707.02 117.65 703.49 121.63 698.8 121.63C693.71 121.63 690.58 118.1 690.58 112.35ZM705.5 112.35C705.5 107.45 702.76 104.08 698.81 104.08C694.86 104.08 692.12 107.64 692.12 112.35C692.12 117.06 694.86 120.6 698.81 120.6C702.76 120.6 705.5 117.07 705.5 112.35Z" fill="#393F36"/>
</g>
<defs>
<clipPath id="clip0_382_3">
<rect width="707.03" height="121.7" fill="white"/>
</clipPath>
</defs>
</svg>
